<?xml version="1.0" encoding="utf-8"?>
<!-- Generator: Adobe Illustrator 17.1.0, SVG Export Plug-In . SVG Version: 6.00 Build 0)  -->
<!DOCTYPE svg PUBLIC "-//W3C//DTD SVG 1.1//EN" "http://www.w3.org/Graphics/SVG/1.1/DTD/svg11.dtd">
<svg version="1.1" id="Layer_1" xmlns="http://www.w3.org/2000/svg" xmlns:xlink="http://www.w3.org/1999/xlink" x="0px" y="0px"
	 viewBox="0 0.6 283 38.9" enable-background="new 0 0.6 283 38.9" xml:space="preserve">
<g>
	<g>
		<rect x="173.7" y="0.6" fill="#5090C5" width="109.3" height="38.9"/>
		<rect x="0.3" y="0.6" fill="#FFFFFF" width="176.2" height="38.9"/>
		<g>
			<path fill="#4E4E4E" d="M62.8,19.9c0,4.9-3.6,8.6-8.8,8.6s-8.8-3.6-8.8-8.6c0-4.9,3.6-8.6,8.8-8.6C59.2,11.3,62.8,15,62.8,19.9
				 M49.9,19.9c0,2.6,1.7,4.3,4.1,4.3s4.1-1.8,4.1-4.3s-1.7-4.3-4.1-4.3C51.6,15.6,49.9,17.4,49.9,19.9"/>
			<path fill="#4E4E4E" d="M75.5,20.6v7.6h-4.3v-6.3c0-1.1-0.5-1.8-1.5-1.8c-0.8,0-1.5,0.5-1.5,1.8v6.3H64V16.5h4.1v1.2
				c0.7-1,1.7-1.6,3.2-1.6C73.7,16.2,75.5,17.9,75.5,20.6"/>
			<path fill="#4E4E4E" d="M88.6,22.4c0,0.4-0.1,1-0.1,1.3h-7.7c0.3,0.9,1,1.4,2.1,1.4c0.7,0,1.6-0.3,2.2-0.9l2.9,2.4
				c-1.1,1.2-3,2-5.3,2c-3.8,0-6.3-2.4-6.3-6.1c0-3.7,2.5-6.3,6.1-6.3C86.1,16.2,88.5,18.6,88.6,22.4 M80.8,21.1h3.5
				c-0.3-0.9-0.9-1.4-1.8-1.4C81.6,19.7,81.1,20.1,80.8,21.1"/>
			<polygon fill="#4E4E4E" points="113.3,28.2 108.9,28.2 108.9,17.8 105.8,28.2 101.7,28.2 98.7,17.8 98.7,28.2 94.2,28.2 
				94.2,11.6 100.4,11.6 103.8,21.6 107.1,11.6 113.3,11.6 			"/>
			<path fill="#4E4E4E" d="M127.5,22.4c0,3.6-2.7,6.2-6.4,6.2c-3.7,0-6.4-2.6-6.4-6.2s2.7-6.2,6.4-6.2
				C124.7,16.2,127.5,18.8,127.5,22.4 M119,22.4c0,1.4,0.9,2.3,2.1,2.3c1.2,0,2.1-0.9,2.1-2.3c0-1.4-0.9-2.3-2.1-2.3
				C119.9,20.1,119,21,119,22.4"/>
			<path fill="#4E4E4E" d="M139.8,20.6v7.6h-4.3v-6.3c0-1.1-0.5-1.8-1.5-1.8c-0.8,0-1.5,0.5-1.5,1.8v6.3h-4.3V16.5h4.1v1.2
				c0.7-1,1.7-1.6,3.2-1.6C138.1,16.2,139.8,17.9,139.8,20.6"/>
			<path fill="#4E4E4E" d="M156.1,17.4c0.7-0.8,1.6-1.2,3-1.2c2.4,0,4.2,1.7,4.2,4.5v7.6H159v-6.3c0-1.1-0.5-1.8-1.5-1.8
				c-0.8,0-1.5,0.5-1.5,1.8v6.3h-4.1V11.2h4.3L156.1,17.4L156.1,17.4z"/>
			<path fill="#4D4E4F" d="M147.1,22.6v-2.4h3.5v-3.7h-3.5v-3.4h-4.3v3.4h-2.2v3.7h2.2v3.1c0,2.9,1.4,4.9,4.7,4.9
				c1.3,0,2.2-0.2,3-0.5v-3.4h-2C147.7,24.3,147.1,23.9,147.1,22.6"/>
		</g>
		<g>
			<g>
				<path fill="#FFFFFF" d="M194,22.4V28h-3.9V11.4h7.1c4.1,0,6.3,2.2,6.3,5.5c0,3.2-2.2,5.5-6.2,5.5H194z M194,15v3.8h3.1
					c1.4,0,2.3-0.7,2.3-1.9c0-1.3-0.9-2-2.3-2H194z"/>
				<path fill="#FFFFFF" d="M209.5,32.8h-4.1l4-7.3l-4.9-9h4.3l2.6,5.2l2.6-5.2h4.1L209.5,32.8z"/>
				<path fill="#FFFFFF" d="M228.6,19.7h-4V23c0,1.4,0.7,1.8,1.6,1.8c0.7,0,1.4-0.4,2-0.7l1.3,2.9c-1.1,0.7-2.2,1.3-4.1,1.3
					c-3.1,0-4.5-1.8-4.5-4.8v-3.8h-2.2v-3.2h2.2V13h3.7v3.4h4L228.6,19.7L228.6,19.7z"/>
				<path fill="#FFFFFF" d="M234.7,17.6c0.7-1.1,1.8-1.6,3.3-1.6c2.3,0,4.1,1.6,4.1,4.3V28h-3.7v-6.3c0-1.4-0.7-2.2-1.8-2.2
					c-1,0-1.9,0.7-1.9,2.2V28H231V11h3.7V17.6z"/>
				<path fill="#FFFFFF" d="M256.7,22.2c0,3.5-2.7,6.1-6.3,6.1c-3.6,0-6.3-2.6-6.3-6.1c0-3.5,2.7-6.1,6.3-6.1
					C254,16.1,256.7,18.7,256.7,22.2z M247.9,22.2c0,1.6,1.1,2.6,2.5,2.6c1.5,0,2.5-1.1,2.5-2.6c0-1.6-1.1-2.6-2.5-2.6
					C248.9,19.5,247.9,20.6,247.9,22.2z"/>
				<path fill="#FFFFFF" d="M269.8,20.4V28h-3.7v-6.3c0-1.4-0.7-2.2-1.8-2.2c-1,0-1.9,0.7-1.9,2.2V28h-3.7V16.4h3.5v1.5
					c0.7-1.2,1.9-1.8,3.4-1.8C268,16.1,269.8,17.7,269.8,20.4z"/>
			</g>
		</g>
	</g>
	<g>
		<path fill="#D5D4D4" d="M31.9,33.4H10.9c-1.3,0-2.3-1-2.3-2.3V10.1c0-1.3,1-2.3,2.3-2.3h20.9c1.3,0,2.3,1,2.3,2.3v20.9
			C34.2,32.4,33.2,33.4,31.9,33.4"/>
		<rect x="12.2" y="12.4" fill="#FFFFFF" width="19.1" height="17.2"/>
		<rect x="12.2" y="12.4" fill="#4E4E4E" width="19.1" height="3"/>
		<path fill="#4E4E4E" d="M16.5,15.2L16.5,15.2c-0.7,0-1.1-0.5-1.1-1.1v-2.4c0-0.6,0.5-1.1,1.1-1.1l0,0c0.6,0,1.1,0.5,1.1,1.1v2.4
			C17.6,14.7,17.1,15.2,16.5,15.2"/>
		<path fill="#4E4E4E" d="M27.1,15.2L27.1,15.2c-0.7,0-1.1-0.5-1.1-1.1v-2.4c0-0.6,0.5-1.1,1.1-1.1l0,0c0.6,0,1.1,0.5,1.1,1.1v2.4
			C28.2,14.7,27.7,15.2,27.1,15.2"/>
		<rect x="18.2" y="17" fill="#5090C5" width="3" height="3"/>
		<rect x="22.4" y="17" fill="#3877AC" width="3" height="3"/>
		<rect x="26.5" y="17" fill="#5090C5" width="3" height="3"/>
		<rect x="14" y="21" fill="#3877AC" width="3" height="3"/>
		<rect x="18.1" y="21" fill="#2A5C86" width="3" height="3"/>
		<rect x="22.3" y="21" fill="#5090C5" width="3" height="3"/>
		<rect x="26.5" y="21" fill="#3877AC" width="3" height="3"/>
		<rect x="14" y="25.1" fill="#5090C5" width="3" height="3"/>
		<rect x="18.2" y="25.1" fill="#3877AC" width="3" height="3"/>
		<rect x="22.4" y="25.1" fill="#2A5C86" width="3" height="3"/>
	</g>
</g>
</svg>
